<?xml version="1.0" encoding="utf-8"?>
<!-- Generator: Adobe Illustrator 16.0.0, SVG Export Plug-In . SVG Version: 6.00 Build 0)  -->
<!DOCTYPE svg PUBLIC "-//W3C//DTD SVG 1.0//EN" "http://www.w3.org/TR/2001/REC-SVG-20010904/DTD/svg10.dtd">
<svg version="1.0" id="圖層_2" xmlns="http://www.w3.org/2000/svg" xmlns:xlink="http://www.w3.org/1999/xlink" x="0px" y="0px"
	 width="700px" height="700px" viewBox="0 0 700 700" enable-background="new 0 0 700 700" xml:space="preserve">
<g>
	<path fill-rule="evenodd" clip-rule="evenodd" fill="#FFFFFF" d="M623.166,106.985v446.85H186.458V399l265.042,0.5
		C451.5,399.5,572.5,330.41,623.166,106.985z"/>
	<path fill-rule="evenodd" clip-rule="evenodd" fill="#FFFFFF" d="M9.5,378h439c0,0,108-62.53,162-271.015
		c-24,1.515-424.042,0-424.042,0S154.5,214.5,9.5,378z"/>
	<path fill-rule="evenodd" clip-rule="evenodd" fill="#D98A9C" d="M633.154,107.566c3.454,4.023,38.446,37.22,51.3,50.098
		c1.945,1.95,3.398,3.703,3.395,7.082c-0.181,136.694-0.168,273.389-0.181,410.083c-0.001,10.607-0.001,21.217-0.001,31.927
		c-2.977-0.153-3.878-1.998-5.12-3.234c-14.727-14.634-29.35-29.371-44.128-43.952c-3.699-3.648-5.541-7.567-5.537-12.935
		C632.99,402.476,632.307,108.147,633.154,107.566z"/>
	<path fill-rule="evenodd" clip-rule="evenodd" fill="#D98B9D" d="M187.194,565.396c2.526,0,5.052,0,7.579,0
		c139.235-0.001,278.472,0.028,417.707-0.112c5.554-0.005,9.572,1.391,13.469,5.466c11.118,11.63,22.699,22.813,34.027,34.243
		c1.355,1.367,4.129,2.451,2.917,4.936c-1.065,2.181-3.685,1.521-5.74,1.542c-3.73,0.043-7.462,0.011-11.194,0.011
		c-134.571-0.001-269.142-0.038-403.712,0.114c-6.295,0.008-10.991-1.66-15.495-6.105c-13.221-13.051-26.833-25.707-40.293-38.516
		C186.704,566.448,186.948,565.922,187.194,565.396z"/>
	<path fill-rule="evenodd" clip-rule="evenodd" fill="#D98A9C" d="M534.486,523.362c-15.863,0-31.727-0.095-47.587,0.056
		c-4.892,0.047-7.545-0.879-7.704-6.79c-0.595-22.101,4.768-41.267,22.374-56.412c11.602-9.98,23.857-19.305,34.236-30.724
		c4.771-5.248,5.325-11.271,4.541-17.571c-0.755-6.057-6.705-9.735-15.651-9.95c-11.975-0.288-22.805,3.632-32.527,10.315
		c-4.825,3.318-6.227,1.671-6.281-3.154c-0.101-8.863,0.133-17.732-0.087-26.592c-0.115-4.632,2.774-6.598,6.166-8.375
		c10.893-5.712,22.867-7.451,34.808-8.657c19.838-2.003,38.372,1.007,52.33,17.181c7.97,9.232,10.448,20.382,9.871,32.199
		c-1.028,21.003-13.254,34.814-29.954,45.694c-8.352,5.443-16.54,11.146-24.669,16.915c-1.578,1.12-4.076,2.581-3.277,4.881
		c0.811,2.339,3.554,1.678,5.572,1.683c15.629,0.04,31.261,0.186,46.887-0.065c5.479-0.087,7.53,1.831,7.273,7.334
		c-0.349,7.448-0.083,14.926-0.089,22.391c-0.008,9.206-0.383,9.621-9.344,9.636C565.745,523.38,550.115,523.362,534.486,523.362z"
		/>
	<path fill-rule="evenodd" clip-rule="evenodd" fill="#D98A9C" d="M273.689,310.684c3.157-8.068,8.246-13.928,12.517-20.101
		c13.438-19.422,22.971-40.767,32.083-62.313c3.588-8.485,5.457-17.69,8.233-26.528c1.295-4.119-0.312-5.628-4.302-5.612
		c-10.37,0.04-20.738,0.013-31.98,0.013c4.512-8.972,6.859-17.659,9.553-26.224c0.906-2.882,2.321-4.579,5.684-5.125
		c15.717-2.547,29.947-9.183,44.322-15.771c9.225-4.227,19.738-1.357,29.673-1.424c2.716-0.018,2.755,2.523,2.944,4.711
		c0.471,5.427-0.613,10.739-1.778,15.881c-9.513,41.974-21.718,83.015-43.582,120.532c-3.734,6.405-7.848,12.592-11.513,19.034
		c-1.388,2.439-3.121,2.978-5.661,2.965C304.737,310.646,289.592,310.684,273.689,310.684z"/>
</g>
</svg>
