<?xml version="1.0" encoding="utf-8"?>
<!-- Generator: Adobe Illustrator 16.0.0, SVG Export Plug-In . SVG Version: 6.00 Build 0)  -->
<!DOCTYPE svg PUBLIC "-//W3C//DTD SVG 1.0//EN" "http://www.w3.org/TR/2001/REC-SVG-20010904/DTD/svg10.dtd">
<svg version="1.0" id="Layer_1" xmlns="http://www.w3.org/2000/svg" xmlns:xlink="http://www.w3.org/1999/xlink" x="0px" y="0px"
	 width="700px" height="700px" viewBox="0 0 700 700" enable-background="new 0 0 700 700" xml:space="preserve">
<g>
	<path fill-rule="evenodd" clip-rule="evenodd" fill="#5C6A96" d="M588.627,353.138c-0.868,48-15.477,93.905-46.011,134.713
		c-31.613,42.251-72.981,70.216-123.417,84.228c-48.481,13.47-96.575,10.992-143.713-7.483
		c-19.441-7.621-37.699-17.181-54.238-29.897c-3.064-2.357-5.423-2.285-8.795-0.813c-23.47,10.248-47.001,20.357-70.594,30.32
		c-8.976,3.79-15.752,2.448-21.101-3.466c-5.601-6.192-6.502-15.34-1.598-23.45c11.813-19.53,23.481-39.173,36.1-58.177
		c4.712-7.097,5.104-12.209,0.94-19.71c-20.489-36.919-29.733-76.853-27.584-118.896c2.208-43.193,15.432-82.987,40.236-118.86
		c31.619-45.729,74.168-76.478,127.407-91.166c70.689-19.503,136.713-7.398,196.625,34.856
		c44.703,31.527,73.315,74.763,87.983,127.241C586.151,311.474,588.283,330.929,588.627,353.138z"/>
	<path fill-rule="evenodd" clip-rule="evenodd" fill="#FEFEFE" d="M328.961,387.024c0.005-5.598,0.639-11.285-0.135-16.772
		c-1.334-9.451,7.654-16.851,16.309-16.59c15.87,0.48,31.563-1.221,46.832-6.039c9.99-3.151,19.063-7.581,24.946-16.683
		c14.489-22.416,4.917-49.627-20.992-59.668c-21.552-8.352-43.225-8.4-64.65,0.215c-8.324,3.347-15.387,8.629-18.906,17.555
		c-2.971,7.536-8.204,11.536-16.794,10.347c-3.434-0.476-7,0.1-10.481-0.137c-11.584-0.79-16.536-9.008-13.066-19.984
		c7.322-23.167,23.572-37.76,45.263-46.256c35.941-14.075,71.778-12.731,105.759,5.894c29.316,16.068,43.461,41.48,41.38,75.426
		c-2.493,40.655-25.326,63.92-64.022,75.372c-8.505,2.517-17.178,4.204-26.029,4.495c-3.471,0.115-4.566,1.234-4.129,4.529
		c0.493,3.721,0.24,7.408-0.707,11.084c-0.546,2.118-1.544,3.851-2.944,5.448c-6.747,7.701-28.631,7.065-34.93-0.995
		c-1.935-2.476-2.896-5.099-2.774-8.354C329.121,399.624,328.956,393.321,328.961,387.024z"/>
	<path fill-rule="evenodd" clip-rule="evenodd" fill="#FEFEFE" d="M328.961,466.67c-1.622-20.803,5.821-22.315,21.973-21.676
		c2.555,0.102,5.179-0.257,7.658,0.203c5.868,1.091,10.322,3.688,11.088,10.552c0.877,7.861,1.576,15.668-0.191,23.469
		c-1.277,5.64-4.705,8.955-10.66,9.115c-5.808,0.156-11.629,0.404-17.427,0.174c-8.218-0.328-12.365-5.004-12.442-13.463
		C328.933,472.252,328.955,469.462,328.961,466.67z"/>
</g>
</svg>
