<?xml version="1.0" encoding="utf-8"?>
<!-- Generator: Adobe Illustrator 16.0.0, SVG Export Plug-In . SVG Version: 6.00 Build 0)  -->
<!DOCTYPE svg PUBLIC "-//W3C//DTD SVG 1.0//EN" "http://www.w3.org/TR/2001/REC-SVG-20010904/DTD/svg10.dtd">
<svg version="1.0" id="圖層_1" xmlns="http://www.w3.org/2000/svg" xmlns:xlink="http://www.w3.org/1999/xlink" x="0px" y="0px"
	 width="700px" height="700px" viewBox="0 0 700 700" enable-background="new 0 0 700 700" xml:space="preserve">
<g id="圖層_1_1_">
	<g>
		<path fill-rule="evenodd" clip-rule="evenodd" fill="#6291B3" d="M270.783,88.202c50.866,0.001,101.731-0.153,152.595,0.089
			c16.563,0.08,31.828,4.366,43.063,17.775c6.503,7.76,9.799,16.953,10.599,26.887c0.672,8.355,0.689,16.775,0.704,25.167
			c0.067,37.099,0.181,74.199-0.118,111.296c-0.052,6.325,1.929,7.835,7.955,7.789c29.162-0.227,58.343-0.518,87.488,0.239
			c16.762,0.437,32.602,4.877,45.49,16.901c13.74,12.819,20.911,28.796,21.111,47.154c0.521,48.057,0.5,96.126,0.094,144.186
			c-0.314,37.177-27.037,64.245-64.1,66.038c-12.236,0.592-11.979,0.511-8.326,12.252c3.028,9.739,5.56,19.646,7.932,29.57
			c1.572,6.577-1.066,12.067-6.409,15.871c-4.962,3.532-10.543,3.548-15.821,0.525c-24.249-13.888-48.438-27.879-72.654-41.826
			c-7.265-4.186-14.564-8.313-21.808-12.536c-3.944-2.301-8.101-3.049-12.68-3.039c-51.099,0.105-102.198,0.127-153.296,0.011
			c-9.54-0.021-19.042-0.749-28.424-2.99c-28.254-6.747-46.419-27.107-49.953-55.994c-2.079-16.991-0.952-34.024-1.172-51.039
			c-0.193-14.93-0.075-29.864-0.002-44.797c0.02-4.138,0.541-6.932-5.339-3.506c-23.736,13.836-47.816,27.08-71.738,40.599
			c-5.765,3.258-11.542,4.047-16.789-0.5c-4.996-4.33-7.799-9.693-5.74-16.75c3.966-13.594,7.362-27.366,11.745-40.819
			c1.629-5.002,0.134-5.748-4.026-5.813c-5.349-0.084-10.648-0.423-15.987-1.195c-20.776-3.004-36.931-18.231-40.637-38.743
			c-1.122-6.207-1.598-12.421-1.588-18.74c0.082-56.465-0.043-112.93,0.118-169.395c0.036-12.752,2.712-24.991,10.626-35.488
			c10.989-14.576,26.765-18.951,43.793-19.059C168.585,87.993,219.685,88.202,270.783,88.202z"/>
		<path fill-rule="evenodd" clip-rule="evenodd" fill="#FEFEFE" d="M544.526,576.479c-17.158-10.577-32.791-20.149-48.355-29.83
			c-13.24-8.234-26.456-16.512-39.56-24.96c-3.341-2.153-6.744-2.65-10.56-2.646c-52.025,0.062-104.05,0.003-156.075,0.083
			c-6.568,0.01-13.078-0.367-19.344-2.215c-15.292-4.509-23.591-14.941-23.819-32.123c-0.479-35.922-0.134-71.853-0.289-107.779
			c-0.028-6.433,3.975-6.213,8.421-6.21c53.191,0.037,106.382,0,159.574,0.052c8.395,0.008,16.778-0.041,24.969-2.057
			c22.868-5.626,36.432-22.344,37.636-45.979c0.66-12.974-2.19-12.163,12.776-12.152c26.361,0.018,52.724-0.012,79.087,0.029
			c24.222,0.037,37.768,12.268,38.065,36.454c0.557,45.251,1.085,90.542-0.219,135.763c-0.692,24.07-11.133,34.043-36.436,35.964
			c-11.136,0.845-22.385,0.199-33.583,0.212c-8.83,0.01-8.547-0.092-6.019,8.141c4.505,14.664,8.637,29.442,12.894,44.181
			C543.994,572.461,544.059,573.586,544.526,576.479z"/>
		<path fill-rule="evenodd" clip-rule="evenodd" fill="#CFE8FA" d="M271.138,323.717c-49.191-0.307-89.316-40.656-89.127-89.627
			c0.19-49.393,41.474-90.213,90.742-89.722c48.858,0.487,88.936,41.321,88.663,90.336
			C361.138,284.369,320.919,324.026,271.138,323.717z"/>
		<path fill-rule="evenodd" clip-rule="evenodd" fill="#6291B4" d="M423.714,457.561c-44.795-0.001-89.588,0-134.382-0.004
			c-1.866,0-3.767,0.185-5.589-0.108c-3.072-0.492-5.135-2.287-5.108-5.599c0.024-3.098,2.207-4.521,4.909-5.008
			c1.813-0.325,3.719-0.174,5.583-0.174c90.055-0.007,180.109-0.008,270.164-0.001c1.864,0,3.775-0.144,5.58,0.212
			c2.866,0.566,4.552,2.578,4.306,5.495c-0.231,2.739-1.727,4.849-4.785,5.129c-1.62,0.149-3.264,0.057-4.896,0.057
			C514.236,457.561,468.975,457.561,423.714,457.561z"/>
		<path fill-rule="evenodd" clip-rule="evenodd" fill="#6191B3" d="M424.204,413.219c-44.082,0.001-88.164,0.001-132.246-0.001
			c-1.865,0-3.736,0.045-5.595-0.078c-2.697-0.178-4.296-1.818-4.715-4.36c-0.479-2.909,0.939-5.185,3.628-6.013
			c2.162-0.667,4.59-0.626,6.901-0.628c87.93-0.027,175.86-0.022,263.792-0.022c1.166,0,2.332-0.022,3.498,0.015
			c4.114,0.134,7.711,1.271,7.496,6.225c-0.212,4.869-4.071,4.883-7.715,4.881c-35.219-0.015-70.438-0.015-105.656-0.021
			C443.796,413.216,434,413.216,424.204,413.219z"/>
		<path fill-rule="evenodd" clip-rule="evenodd" fill="#6292B3" d="M271.33,235.162c15.832,0.001,31.665-0.025,47.497,0.009
			c12.717,0.029,15.32,3.779,11.204,15.98c-8.818,26.141-32.63,42.2-61.932,41.769c-25.423-0.374-49.389-18.88-56.903-43.938
			c-2.689-8.969,0.916-13.771,10.542-13.807C238.269,235.114,254.8,235.159,271.33,235.162z"/>
	</g>
</g>
<g id="圖層_2">
</g>
<g id="圖層_3">
</g>
</svg>
