<?xml version="1.0" encoding="utf-8"?>
<!-- Generator: Adobe Illustrator 16.0.0, SVG Export Plug-In . SVG Version: 6.00 Build 0)  -->
<!DOCTYPE svg PUBLIC "-//W3C//DTD SVG 1.0//EN" "http://www.w3.org/TR/2001/REC-SVG-20010904/DTD/svg10.dtd">
<svg version="1.0" xmlns="http://www.w3.org/2000/svg" xmlns:xlink="http://www.w3.org/1999/xlink" x="0px" y="0px" width="700px"
	 height="700px" viewBox="0 0 700 700" enable-background="new 0 0 700 700" xml:space="preserve">
<g id="圖層_3">
</g>
<g id="圖層_2">
	<g>
		<path fill-rule="evenodd" clip-rule="evenodd" fill="#D28798" d="M39.136,657.945c30.405-30.588,60.808-61.179,91.218-91.762
			c7.233-7.274,14.395-14.627,21.797-21.726c2.631-2.524,2.851-4.24,0.094-6.763c-2.73-2.499-5.185-5.346-7.486-8.258
			c-7.167-9.069-7.49-16.094,0.576-24.077c5.659-5.602,3.98-8.549-0.805-13.29c-13.21-13.088-24.078-27.986-29.468-46.042
			c-7.605-25.479-0.913-48.504,14.4-69.103c18.296-24.609,41.757-44.473,63.184-66.176c45.704-46.297,91.872-92.136,137.792-138.22
			c15.93-15.987,31.573-32.261,47.622-48.127c3.056-3.02,2.735-4.662,0.045-7.265c-5.864-5.672-11.687-11.396-17.313-17.302
			c-10.769-11.308-10.755-20.191-0.082-31.632c3.02-3.237,6.151-6.384,9.408-9.38c10.881-10.014,20.74-10.114,31.286,0.291
			c19.912,19.646,39.566,39.553,59.3,59.38c9.368,9.412,18.671,18.888,28.004,28.336c1.282,1.486,2.686,1.557,4.197,0.358
			c13.385-13.333,26.699-26.739,40.207-39.946c3.186-3.115,3.583-5.333,0.15-8.555c-6.291-5.902-12.305-12.106-18.309-18.306
			c-9.328-9.635-9.753-18.577-0.561-28.222c14.419-15.125,20.968-17.829,37.283-1.33c35.259,35.656,70.804,71.029,106.172,106.579
			c5.828,5.859,12.198,12.471,8.11,21.306c-4.669,10.09-12.223,18.596-23.724,21.022c-6.566,1.385-11.914-3.317-16.495-7.706
			c-6.892-6.602-13.65-13.359-20.158-20.335c-2.366-2.535-3.856-2.617-6.198-0.256c-13.305,13.416-26.633,26.81-40.089,40.074
			c-3.173,3.127-0.953,4.707,1.1,6.757c16.496,16.485,33.022,32.942,49.408,49.537c13.859,14.036,27.915,27.908,41.17,42.5
			c8.101,8.919,7.567,15.362,0.521,24.995c-4.721,6.451-10.333,12.022-16.8,16.673c-7.219,5.193-14.741,4.927-21.97-0.286
			c-8.389-6.05-15.189-13.798-22.192-21.244c-4.174-4.437-6.406-3.794-10.351,0.189c-59.543,60.137-119.224,120.137-178.914,180.129
			c-18.918,19.014-37.613,38.271-57.054,56.738c-14.673,13.938-31.32,24.773-52.144,27.843
			c-24.524,3.615-44.695-5.753-63.289-20.166c-5.14-3.983-9.878-8.521-14.548-13.062c-2.56-2.491-4.239-2.491-6.975-0.058
			c-13.146,11.689-19.558,11.55-31.871-1.214c-4.205-4.36-6.669-3.775-10.613,0.216c-28.53,28.873-57.357,57.454-85.842,86.372
			c-4.554,4.622-9.609,6.84-15.745,7.835c-7.088,1.15-14.103,2.757-21.149,4.165C40.384,660.276,39.041,660.512,39.136,657.945z"/>
		<path fill-rule="evenodd" clip-rule="evenodd" fill="#E2B6BE" d="M492.906,147.188c-1.75,4.015-3.01,2.246-4.198-0.357
			C490.108,146.949,491.507,147.069,492.906,147.188z"/>
		<path fill-rule="evenodd" clip-rule="evenodd" fill="#E0B1B9" d="M39.136,657.945c0.629,1.155,1.761,1.332,2.902,1.489
			c-1.297,1.601-3.112,2.203-4.537,0.783C36.67,659.389,38.067,658.38,39.136,657.945z"/>
		<path fill-rule="evenodd" clip-rule="evenodd" fill="#FFFFFF" d="M282.723,563.098c-20.987,0.137-36.577-11.115-51.036-24.388
			c-13.711-12.586-13.522-12.735-0.594-25.674c88.006-88.081,176-176.171,263.995-264.262c6.651-6.658,6.649-6.677,13.415,0.091
			c17.64,17.644,35.193,35.375,52.971,52.878c3.432,3.377,4.451,5.35,0.427,9.363c-76.117,75.897-151.995,152.034-228.128,227.914
			C319.774,552.97,303.507,563.091,282.723,563.098z"/>
		<path fill-rule="evenodd" clip-rule="evenodd" fill="#FFFFFF" d="M330.352,357.082c0.005,2.3-1.364,3.318-2.491,4.453
			c-5.083,5.121-10.32,10.096-15.246,15.362c-2.979,3.183-5.167,2.757-8.051-0.157c-18.987-19.188-38.063-38.29-57.191-57.338
			c-2.438-2.428-3.045-4.349-0.334-6.965c5.526-5.333,10.944-10.781,16.3-16.285c2.172-2.233,4.047-2.748,6.458-0.325
			c19.539,19.633,39.128,39.215,58.682,58.833C329.276,355.459,329.875,356.457,330.352,357.082z"/>
		<path fill-rule="evenodd" clip-rule="evenodd" fill="#FFFFFF" d="M316.74,243.661c1.392,1.203,2.679,2.18,3.811,3.313
			c19.109,19.117,38.146,38.307,57.351,57.326c2.888,2.86,2.767,4.647-0.1,7.317c-5.453,5.079-10.692,10.397-15.845,15.784
			c-2.333,2.44-4.003,3.176-6.78,0.347c-19.41-19.771-38.959-39.404-58.492-59.054c-1.65-1.661-2.787-3.192-0.685-5.281
			c6.117-6.077,12.205-12.182,18.342-18.238C314.961,244.564,315.839,244.218,316.74,243.661z"/>
		<path fill-rule="evenodd" clip-rule="evenodd" fill="#FFFFFF" d="M429.871,258.684c-0.523,0.648-1.165,1.601-1.961,2.4
			c-5.568,5.599-11.291,11.052-16.704,16.797c-2.281,2.421-3.751,1.804-5.704-0.16c-19.532-19.642-39.063-39.286-58.705-58.816
			c-2.786-2.77-2.009-4.561,0.395-6.874c5.196-5.002,10.403-10.018,15.26-15.343c2.982-3.269,4.855-2.824,7.788,0.157
			c18.774,19.078,37.736,37.972,56.623,56.941C428.147,255.077,429.819,256.151,429.871,258.684z"/>
		<path fill-rule="evenodd" clip-rule="evenodd" fill="#FFFFFF" d="M217.153,344.288c1.183,0.981,2.302,1.767,3.254,2.719
			c19.265,19.269,38.457,38.614,57.825,57.779c2.717,2.688,2.427,4.271-0.105,6.673c-5.235,4.967-10.354,10.068-15.296,15.327
			c-2.563,2.728-4.371,3.271-7.324,0.278c-18.972-19.231-38.109-38.301-57.211-57.404c-1.969-1.97-3.522-3.859-0.911-6.46
			c5.776-5.75,11.51-11.545,17.297-17.284C215.305,345.3,216.169,344.926,217.153,344.288z"/>
	</g>
</g>
</svg>
