<?xml version="1.0" encoding="utf-8"?>
<!-- Generator: Adobe Illustrator 16.0.0, SVG Export Plug-In . SVG Version: 6.00 Build 0)  -->
<!DOCTYPE svg PUBLIC "-//W3C//DTD SVG 1.0//EN" "http://www.w3.org/TR/2001/REC-SVG-20010904/DTD/svg10.dtd">
<svg version="1.0" id="圖層_1" xmlns="http://www.w3.org/2000/svg" xmlns:xlink="http://www.w3.org/1999/xlink" x="0px" y="0px"
	 width="700px" height="700px" viewBox="0 0 700 700" enable-background="new 0 0 700 700" xml:space="preserve">
<g>
	<path fill-rule="evenodd" clip-rule="evenodd" fill="#5C6A96" d="M350.979,650.915c-18.211,0.615-36.249-0.947-54.176-4.173
		c-4.187-0.752-5.936-1.689-4.457-6.692c2.495-8.444,4.143-17.174,5.615-25.874c0.655-3.87,2.238-4.379,5.622-3.829
		c6.885,1.12,13.849,1.751,20.736,2.86c3.813,0.613,4.825-0.758,4.756-4.406c-0.21-10.963-0.483-21.945-0.01-32.89
		c0.232-5.371-2.054-6.805-6.627-7.306c-24.61-2.702-47.78-10.174-69.672-21.615c-11.787-6.161-23.331-12.788-33.511-21.444
		c-3.044-2.589-4.905-2.89-7.865,0.355c-7.699,8.442-15.723,16.602-23.896,24.589c-3.003,2.935-2.856,4.742,0.42,7.022
		c5.927,4.124,11.69,8.483,17.635,12.583c2.49,1.716,3.412,2.954,1.319,5.99c-5.284,7.668-10.111,15.652-15.034,23.563
		c-1.674,2.692-3.009,3.873-6.375,1.65c-31.327-20.683-57.083-46.955-78.652-77.519c-1.818-2.575-1.927-4.106,1.157-5.973
		c8.167-4.942,16.214-10.109,24.037-15.575c3.004-2.099,4.204-1.415,5.913,1.317c4.081,6.521,9.062,12.378,13.953,18.31
		c2.267,2.75,3.638,3.465,6.387,0.55c8.321-8.825,16.766-17.545,25.449-26.011c2.686-2.618,1.561-4.016-0.165-6.23
		c-22.011-28.268-36.724-59.811-42.855-95.262c-0.933-5.392,0.718-12.842-3.628-15.622c-3.755-2.402-10.359-0.341-15.704-0.273
		c-7.699,0.097-15.404,0.391-23.093,0.171c-4.212-0.121-5.439,1.632-4.86,5.374c1.176,7.596,2.37,15.188,3.606,22.773
		c0.351,2.147,0.944,3.795-2.425,4.361c-8.917,1.498-17.873,3.081-26.563,5.521c-5.742,1.61-6.986-0.644-7.933-5.488
		c-2.635-13.487-4.349-27.1-4.863-40.784c-0.797-21.202,0.379-42.339,3.659-63.357c0.92-5.894,2.794-8.367,9.207-6.534
		c7.588,2.17,15.387,3.704,23.177,5.026c4.108,0.696,5.318,1.988,4.531,6.334c-1.324,7.311-1.514,14.82-2.712,22.16
		c-0.535,3.28,0.199,4.196,3.313,4.104c12.824-0.38,25.648-0.794,38.476-0.911c3.947-0.035,3.657-2.48,3.98-5.023
		c3.231-25.416,10.216-49.685,22.222-72.416c5.779-10.943,12.019-21.602,19.64-31.376c1.783-2.287,2.767-3.739,0.011-6.25
		c-9.31-8.481-18.457-17.151-27.41-26.007c-2.968-2.935-4.58-1.944-6.494,0.789c-3.741,5.341-7.701,10.538-11.26,15.996
		c-1.789,2.743-3.213,3.192-6.031,1.316c-7.75-5.16-15.656-10.087-23.583-14.971c-2.811-1.731-3.811-2.998-1.568-6.392
		c20.292-30.688,45.722-56.291,75.538-77.719c4.113-2.957,6.103-2.306,8.581,1.802c4.328,7.178,8.98,14.183,13.881,20.983
		c2.448,3.395,2.412,5.072-1.286,7.615c-6.697,4.607-12.812,10.053-19.254,15.039c-2.493,1.931-3.276,3.473-0.532,6.013
		c9.412,8.717,18.734,17.535,27.904,26.505c2.33,2.279,3.629,1.521,5.721-0.178c31.294-25.415,66.732-41.404,106.864-46.5
		c3.398-0.431,4.184-2.085,4.112-5.105c-0.295-12.358-0.597-24.72-0.623-37.082c-0.009-3.988-1.911-4.863-5.198-4.345
		c-7.129,1.125-14.255,2.278-21.357,3.559c-2.426,0.439-4.173,1.164-4.886-2.536c-1.843-9.577-4.117-19.079-6.516-28.535
		c-1.123-4.424,1.927-4.506,4.552-5.11c14.542-3.347,29.331-5.12,44.199-5.632c20.734-0.711,41.415,0.286,61.971,3.485
		c5.618,0.875,7.851,2.711,6.131,8.85c-2.249,8.031-3.697,16.305-5.108,24.538c-0.564,3.298-1.575,4.132-4.96,3.59
		c-7.574-1.21-15.278-1.61-22.845-2.854c-3.912-0.644-5.034,0.528-4.982,4.204c0.178,12.363,0.354,24.731,0.212,37.093
		c-0.045,3.88,1.677,4.396,4.957,4.738c36.901,3.858,70.582,16.505,101.174,37.464c10.126,6.937,10.16,6.923,18.781-1.835
		c6.546-6.65,12.957-13.438,19.618-19.97c2.636-2.585,2.894-4.218-0.403-6.43c-6.377-4.276-12.427-9.04-18.836-13.26
		c-2.736-1.802-3.306-3.031-1.355-5.925c5.074-7.529,10.058-15.15,14.522-23.047c2.491-4.405,4.877-3.776,8.23-1.53
		c30.128,20.164,55.551,45.16,76.866,74.431c2.532,3.477,2.99,5.611-1.319,8.192c-7.582,4.542-14.841,9.646-22.081,14.731
		c-3.013,2.115-4.751,1.461-6.802-1.328c-4.272-5.812-8.94-11.332-13.275-17.098c-2.177-2.893-3.872-3.291-6.572-0.443
		c-8.344,8.805-16.846,17.464-25.446,26.019c-2.351,2.338-2.215,3.877-0.158,6.372c24.881,30.177,40.553,64.562,46.19,103.308
		c0.795,5.47,2.955,6.621,7.947,6.417c10.719-0.436,21.462-0.489,32.188-0.325c4.94,0.075,6.053-1.767,5.074-6.314
		c-1.373-6.368-2.121-12.869-3.472-19.242c-0.82-3.868-0.359-6.009,4.149-6.865c8.896-1.688,17.711-3.853,26.498-6.064
		c3.311-0.834,4.585,0.208,5.305,3.384c6.642,29.32,7.039,58.972,4.746,88.749c-0.534,6.941-1.905,13.815-2.55,20.752
		c-0.394,4.231-2.745,4.841-6.115,4.154c-9.096-1.851-18.16-3.869-27.276-5.609c-3.039-0.581-3.544-1.768-3.055-4.771
		c1.158-7.115,1.722-14.325,2.594-21.488c0.512-4.202-0.441-6.39-5.49-6.193c-10.951,0.428-21.932,0.444-32.89,0.204
		c-4.173-0.093-5.479,1.118-5.909,5.315c-2.828,27.613-10.023,53.98-23.215,78.571c-5.188,9.67-10.661,19.169-17.259,27.936
		c-2.133,2.833-2.057,4.393,0.567,6.785c8.442,7.7,16.765,15.546,24.859,23.61c2.942,2.931,4.709,2.832,6.935-0.522
		c3.735-5.628,7.893-10.985,11.435-16.725c1.684-2.727,3.035-2.652,5.341-1.167c8.217,5.296,16.407,10.642,24.795,15.659
		c2.737,1.636,2.889,2.779,1.236,5.344c-20.318,31.543-46.105,57.818-76.397,79.802c-2.211,1.604-3.846,2.915-6.009-0.508
		c-5.223-8.267-10.838-16.288-16.414-24.326c-1.838-2.648-0.711-3.833,1.477-5.521c6.631-5.117,12.869-10.749,19.569-15.767
		c3.427-2.563,3.317-4.105,0.283-6.863c-8.111-7.372-16.186-14.814-23.811-22.679c-3.527-3.637-5.657-2.938-9.057-0.031
		c-22.659,19.384-48.661,32.662-77.114,41.21c-11.615,3.49-23.584,5.514-35.608,6.953c-3.665,0.438-4.56,1.836-4.502,5.242
		c0.192,11.43,0.216,22.863,0.091,34.294c-0.039,3.62,0.912,5.049,4.812,4.389c7.799-1.32,15.68-2.147,23.486-3.43
		c2.869-0.471,4.762-0.781,5.458,3.006c1.683,9.143,3.523,18.275,5.858,27.268c1.103,4.248-0.466,5.138-4.067,5.904
		C387.232,649.838,369.222,651.618,350.979,650.915z"/>
	<path fill-rule="evenodd" clip-rule="evenodd" fill="#FEFEFE" d="M226.349,406.003c10.616,0.529,23.18,5.91,34.434,14.562
		c17.393,13.371,30.336,29.716,34.81,51.857c5.813,28.774-13.669,47.711-41.542,39.067c-33.504-10.389-54.384-33.534-61.878-67.754
		C187.532,422.544,201.549,405.986,226.349,406.003z"/>
	<path fill-rule="evenodd" clip-rule="evenodd" fill="#FEFEFE" d="M375.164,471.954c0.034,13.116-10.247,20.858-23.244,18.24
		c-15.052-3.032-25.425-11.611-31.662-25.274c-3.054-6.689-4.432-13.845,0.551-20.387c5.355-7.029,12.293-9.439,21.263-7.782
		C359.241,439.923,375.123,456.4,375.164,471.954z"/>
	<path fill-rule="evenodd" clip-rule="evenodd" fill="#FEFEFE" d="M347.206,544.664c-8.059-0.503-15.264-2.786-20.606-8.977
		c-6.138-7.112-3.571-15.228,5.44-17.687c7.962-2.172,15.193-0.165,21.778,4.33c5.056,3.449,9.102,8.021,6.934,14.576
		C358.699,543.111,352.784,544.032,347.206,544.664z"/>
</g>
</svg>
